<svg width="55" height="15" viewBox="0 0 48 12" fill="none" xmlns="http://www.w3.org/2000/svg">
<path d="M8.67068 0.540039C3.98245 0.540039 0.179688 2.9645 0.179688 5.94785C0.179688 8.9312 3.98245 11.5918 8.67068 11.5918C13.3589 11.5918 17.1617 8.93907 17.1617 5.94785C17.1617 2.95663 13.3589 0.540039 8.67068 0.540039Z" fill="#12AFE5"/>
<path d="M5.88919 3.98503C5.88126 3.99295 5.80197 4.0801 5.85747 4.1514C5.99227 4.31777 6.39666 4.41283 6.80898 4.32569C7.05478 4.27023 7.36402 4.02464 7.67326 3.77905C8.00629 3.51762 8.33139 3.25618 8.65648 3.15319C9.00537 3.04228 9.22738 3.08981 9.37804 3.13735C9.53662 3.18488 9.72692 3.29579 10.0362 3.51761C10.6071 3.94542 12.8986 5.94976 13.303 6.29042C13.6202 6.14782 15.1426 5.52988 17.0694 5.11C16.9028 4.0801 16.2844 3.10566 15.3329 2.33719C14.0087 2.89175 12.2881 3.22449 10.7022 2.45603C10.6943 2.45603 9.83793 2.05199 8.99744 2.06784C7.74462 2.09953 7.19751 2.63824 6.62661 3.21657L5.88919 3.98503Z" fill="white"/>
<path d="M13.2039 6.50262C13.1802 6.47874 10.5171 4.13043 9.90861 3.67668C9.5609 3.41399 9.36333 3.34235 9.15787 3.31847C9.05514 3.30255 8.90499 3.32643 8.80226 3.35031C8.51777 3.42991 8.15425 3.67668 7.83025 3.93142C7.49045 4.20207 7.17435 4.4568 6.88196 4.52048C6.50264 4.60805 6.04429 4.50456 5.83093 4.36128C5.744 4.30555 5.68868 4.23391 5.65707 4.17023C5.57805 3.98714 5.72029 3.84385 5.744 3.81997L6.47893 3.01597C6.56586 2.92841 6.65278 2.84084 6.73971 2.76124C6.50264 2.79308 6.28137 2.85676 6.068 2.91249C5.79932 2.98413 5.54644 3.05577 5.28565 3.05577C5.17502 3.05577 4.59814 2.96025 4.4875 2.92841C3.8237 2.74532 3.06506 2.57019 2.19578 2.15625C1.15266 2.93637 0.473043 3.89957 0.267578 4.98219C0.417725 5.02199 0.812849 5.10955 0.915582 5.13343C3.27842 5.66678 4.01335 6.20809 4.1477 6.31953C4.28994 6.16032 4.50331 6.05684 4.73248 6.05684C4.99326 6.05684 5.23034 6.19216 5.37258 6.39117C5.50692 6.27973 5.69658 6.19216 5.93366 6.19216C6.04429 6.19216 6.15493 6.21604 6.27346 6.24789C6.54215 6.34341 6.67649 6.51854 6.74761 6.67775C6.83454 6.63795 6.94518 6.6061 7.07952 6.6061C7.20596 6.6061 7.3403 6.63795 7.47464 6.69367C7.90928 6.88472 7.9804 7.31458 7.94089 7.64095C7.9725 7.64095 8.00411 7.63299 8.03572 7.63299C8.54938 7.63299 8.97611 8.05489 8.97611 8.58028C8.97611 8.73949 8.9366 8.89073 8.86548 9.02606C9.00772 9.10567 9.36333 9.28875 9.67943 9.24895C9.93231 9.21711 10.0271 9.12954 10.0588 9.08178C10.0825 9.04994 10.1062 9.01014 10.0825 8.9783L9.41865 8.23002C9.41865 8.23002 9.30802 8.12654 9.34753 8.08673C9.38704 8.04693 9.45026 8.10266 9.49768 8.14246C9.83748 8.42903 10.2484 8.85889 10.2484 8.85889C10.2563 8.86685 10.28 8.91462 10.4381 8.94646C10.5724 8.97034 10.8016 8.95442 10.9675 8.81909C11.0071 8.78725 11.0466 8.73949 11.0861 8.69969L11.0782 8.70765C11.252 8.48476 11.0624 8.26186 11.0624 8.26186L10.28 7.37826C10.28 7.37826 10.1694 7.27478 10.2089 7.23498C10.2405 7.19517 10.3116 7.25089 10.367 7.2907C10.6119 7.49767 10.9596 7.84792 11.2994 8.18226C11.3627 8.23002 11.6551 8.41311 12.0502 8.15838C12.2873 7.99917 12.3347 7.80812 12.3268 7.66484C12.311 7.47379 12.1608 7.33846 12.1608 7.33846L11.094 6.26381C11.094 6.26381 10.9833 6.16828 11.0229 6.12052C11.0545 6.08072 11.1256 6.13644 11.173 6.17624C11.5128 6.46282 12.4295 7.30662 12.4295 7.30662C12.4453 7.31458 12.7614 7.54543 13.1486 7.2907C13.2909 7.20313 13.3778 7.06781 13.3857 6.9086C13.3936 6.66183 13.2039 6.50262 13.2039 6.50262Z" fill="white"/>
<path d="M7.98426 7.87637C7.8192 7.87637 7.63842 7.97208 7.61484 7.95613C7.59912 7.94815 7.6227 7.88434 7.63842 7.84446C7.65414 7.80458 7.86636 7.15051 7.34759 6.9192C6.94673 6.74372 6.69521 6.94313 6.61661 7.03087C6.59302 7.0548 6.58516 7.0548 6.58516 7.02289C6.5773 6.90324 6.52228 6.58419 6.17644 6.47252C5.68125 6.32097 5.35899 6.67193 5.28039 6.79955C5.24109 6.5124 5.00528 6.28906 4.71446 6.28906C4.3922 6.28906 4.14067 6.55228 4.13281 6.87134C4.13281 7.19837 4.3922 7.45362 4.7066 7.45362C4.8638 7.45362 5.00528 7.3898 5.10746 7.29409C5.10746 7.29409 5.11532 7.30206 5.10746 7.31004C5.08388 7.45362 5.03672 7.98006 5.57907 8.19542C5.79915 8.28316 5.97994 8.21935 6.13714 8.10768C6.1843 8.07578 6.19216 8.09173 6.1843 8.13161C6.16072 8.26721 6.19216 8.55436 6.59302 8.72186C6.89957 8.84949 7.08035 8.72186 7.19825 8.61019C7.25327 8.56233 7.26113 8.57031 7.26899 8.6421C7.28471 9.03294 7.60698 9.34402 7.99212 9.34402C8.39299 9.34402 8.71525 9.01699 8.71525 8.61019C8.70739 8.21137 8.38513 7.88434 7.98426 7.87637Z" fill="white"/>
<path d="M8.66231 0.00390625C3.87983 0.00390625 0 2.54559 0 5.67321C0 5.75239 0 5.97409 0 6.00576C0 9.3155 3.38891 11.9997 8.66231 11.9997C13.9357 11.9997 17.3246 9.3155 17.3246 6.00576V5.67321C17.3246 2.54559 13.4448 0.00390625 8.66231 0.00390625ZM16.9287 5.03977C15.0442 5.45942 13.6427 6.06911 13.2864 6.21955C12.463 5.49901 10.5626 3.85206 10.048 3.46408C9.755 3.24238 9.55705 3.12361 9.37493 3.0761C9.29575 3.05234 9.1849 3.02859 9.04237 3.02859C8.90777 3.02859 8.77316 3.05234 8.62272 3.09985C8.29016 3.20279 7.95761 3.472 7.64089 3.72537V3.73329C7.34 3.97083 7.0312 4.21629 6.80158 4.27172C6.69864 4.29547 6.59571 4.30339 6.49277 4.30339C6.23148 4.30339 5.99394 4.22421 5.90684 4.11336C5.891 4.09752 5.89892 4.06585 5.93851 4.01834L5.94643 4.01042L6.66697 3.23446C7.23707 2.66436 7.76757 2.13385 9.00279 2.10218C9.02654 2.10218 9.04238 2.10218 9.06613 2.10218C9.83418 2.10218 10.6022 2.44266 10.6814 2.48225C11.4019 2.83064 12.1383 3.01275 12.8905 3.01275C13.6665 3.01275 14.4662 2.82272 15.3055 2.43474C16.1686 3.17903 16.7545 4.07377 16.9287 5.03977ZM8.66231 0.336464C11.204 0.336464 13.4765 1.06492 15.0046 2.21303C14.2683 2.52975 13.5636 2.69603 12.8826 2.69603C12.1858 2.69603 11.489 2.52975 10.816 2.1972C10.7843 2.18136 9.93711 1.77754 9.05029 1.77754C9.02654 1.77754 9.00278 1.77754 8.97903 1.77754C7.94177 1.8013 7.36376 2.16552 6.96785 2.49016C6.58779 2.49808 6.25523 2.5931 5.96227 2.67228C5.70097 2.74354 5.47927 2.80688 5.25756 2.80688C5.17046 2.80688 5.00419 2.79897 4.98835 2.79897C4.73497 2.79105 3.46809 2.48225 2.45459 2.10218C3.99068 1.01741 6.19981 0.336464 8.66231 0.336464ZM2.16954 2.32389C3.22263 2.75938 4.50535 3.09193 4.91709 3.11569C5.02794 3.12361 5.14671 3.13944 5.2734 3.13944C5.54261 3.13944 5.81182 3.06026 6.07312 2.989C6.22356 2.94941 6.39776 2.9019 6.57195 2.86231C6.52445 2.90982 6.47694 2.95733 6.42943 3.00483L5.69305 3.79664C5.63763 3.85206 5.51094 4.01042 5.59012 4.20046C5.62179 4.27964 5.69305 4.3509 5.78015 4.41424C5.95435 4.53301 6.27107 4.61219 6.55612 4.61219C6.66697 4.61219 6.7699 4.60428 6.86492 4.58052C7.17372 4.50926 7.49836 4.25588 7.83884 3.97875C8.10805 3.76497 8.49603 3.48783 8.79692 3.40865C8.88402 3.3849 8.97903 3.36906 9.06613 3.36906C9.08988 3.36906 9.11364 3.36906 9.13739 3.37698C9.33534 3.40074 9.52537 3.472 9.85793 3.72537C10.4597 4.1767 13.1281 6.51252 13.1518 6.53627C13.1518 6.53627 13.326 6.68671 13.3102 6.93217C13.3023 7.06678 13.231 7.18555 13.0964 7.27265C12.9855 7.34391 12.8668 7.3835 12.748 7.3835C12.5659 7.3835 12.4471 7.2964 12.4392 7.2964C12.4313 7.28848 11.5128 6.44917 11.1802 6.16412C11.1248 6.11662 11.0773 6.07703 11.0219 6.07703C10.9902 6.07703 10.9665 6.09286 10.9506 6.1087C10.8952 6.17204 10.9585 6.26706 11.0298 6.32248L12.0987 7.39933C12.0987 7.39933 12.2333 7.52602 12.2492 7.6923C12.2571 7.8665 12.17 8.01694 11.9958 8.13571C11.8691 8.22281 11.7424 8.2624 11.6157 8.2624C11.4495 8.2624 11.3386 8.19114 11.3148 8.16738L11.1644 8.01694C10.8873 7.73981 10.5943 7.45476 10.3805 7.28056C10.3251 7.24097 10.2776 7.20138 10.2222 7.20138C10.1984 7.20138 10.1747 7.2093 10.1509 7.23306C10.1271 7.25681 10.1113 7.30432 10.1667 7.39142C10.1905 7.42309 10.2222 7.45476 10.2222 7.45476L10.9981 8.33366C11.006 8.34158 11.1565 8.52369 11.014 8.70581L10.9823 8.73748C10.9585 8.76123 10.9348 8.78499 10.911 8.80874C10.7764 8.91959 10.6022 8.92751 10.531 8.92751C10.4914 8.92751 10.4597 8.92751 10.428 8.91959C10.3488 8.90376 10.3013 8.88792 10.2776 8.85625L10.2697 8.84833C10.2301 8.80082 9.83418 8.40492 9.50954 8.13571C9.46995 8.09612 9.41452 8.05653 9.3591 8.05653C9.33534 8.05653 9.31159 8.06445 9.28783 8.0882C9.22449 8.15946 9.31951 8.2624 9.3591 8.30199L10.0242 9.03836C10.0242 9.04628 10.0163 9.06212 10.0005 9.08587C9.9767 9.11754 9.89752 9.19672 9.65206 9.2284C9.62039 9.2284 9.59664 9.23631 9.56497 9.23631C9.31951 9.23631 9.05029 9.11754 8.91569 9.04628C8.97903 8.91168 9.0107 8.76915 9.0107 8.62663C9.0107 8.08028 8.56729 7.63687 8.02095 7.63687C8.01303 7.63687 7.9972 7.63687 7.98928 7.63687C8.00511 7.3835 7.97344 6.91634 7.48253 6.70255C7.34 6.6392 7.2054 6.60753 7.07079 6.60753C6.96785 6.60753 6.86492 6.62337 6.7699 6.66296C6.66697 6.46501 6.50069 6.32248 6.28691 6.25122C6.16814 6.21163 6.04937 6.18788 5.93059 6.18788C5.72473 6.18788 5.54261 6.25122 5.37633 6.36207C5.21797 6.16412 4.98043 6.04535 4.72706 6.04535C4.50535 6.04535 4.29156 6.13245 4.1332 6.29081C3.92734 6.13245 3.10386 5.60986 0.910572 5.11103C0.807638 5.08727 0.570097 5.01601 0.419655 4.97642C0.609687 3.97083 1.23521 3.06818 2.16954 2.32389ZM6.2394 8.04861L6.21564 8.02486H6.19189C6.17605 8.02486 6.1523 8.03278 6.12855 8.04861C6.01769 8.12779 5.90684 8.16738 5.80391 8.16738C5.74056 8.16738 5.68514 8.15155 5.62179 8.13571C5.11504 7.93776 5.15463 7.45476 5.17838 7.31224C5.17838 7.28057 5.17838 7.25681 5.15463 7.24097L5.11504 7.2093L5.08337 7.24097C4.98043 7.33599 4.85374 7.39142 4.71914 7.39142C4.42617 7.39142 4.18863 7.15388 4.18863 6.86091C4.18863 6.56794 4.42617 6.3304 4.71914 6.3304C4.98043 6.3304 5.21005 6.52835 5.24173 6.78965L5.25756 6.93217L5.33674 6.8134C5.34466 6.79756 5.55845 6.47293 5.95435 6.47293C6.02561 6.47293 6.10479 6.48876 6.18397 6.51252C6.50069 6.60753 6.5482 6.89258 6.55612 7.01135C6.56404 7.08261 6.61154 7.08261 6.61946 7.08261C6.64322 7.08261 6.66697 7.06678 6.68281 7.05094C6.73823 6.9876 6.87284 6.88466 7.07079 6.88466C7.16581 6.88466 7.26082 6.90842 7.36376 6.94801C7.86259 7.16179 7.63297 7.79523 7.63297 7.80315C7.59338 7.90609 7.58546 7.9536 7.62505 7.97735L7.64089 7.98527H7.65672C7.68048 7.98527 7.70423 7.97735 7.75174 7.96151C7.823 7.93776 7.91802 7.90609 8.02095 7.90609C8.3931 7.91401 8.7019 8.21489 8.7019 8.58704C8.7019 8.95918 8.3931 9.26799 8.02095 9.26799C7.65672 9.26799 7.35584 8.98294 7.34 8.61871C7.34 8.58704 7.33208 8.50786 7.26874 8.50786C7.23707 8.50786 7.21331 8.52369 7.18956 8.54745C7.11038 8.61871 7.00744 8.69789 6.857 8.69789C6.78574 8.69789 6.71448 8.68205 6.6353 8.65038C6.24732 8.49202 6.2394 8.23073 6.25523 8.11987C6.25523 8.09612 6.26315 8.07237 6.2394 8.04861ZM8.66231 10.9941C4.06194 10.9941 0.332557 8.61079 0.332557 5.66529C0.332557 5.54652 0.340475 5.42775 0.356311 5.30898C0.395901 5.3169 0.76013 5.40399 0.831392 5.41983C3.07219 5.91866 3.81648 6.43334 3.94317 6.53627C3.90358 6.6392 3.87983 6.75006 3.87983 6.86091C3.87983 7.32807 4.25989 7.70022 4.71914 7.70022C4.77456 7.70022 4.82207 7.6923 4.8775 7.68438C4.94876 8.02486 5.17046 8.28615 5.51094 8.42076C5.61387 8.46035 5.70889 8.47618 5.81182 8.47618C5.87517 8.47618 5.93851 8.46827 6.00186 8.45243C6.0652 8.61079 6.20773 8.80874 6.52445 8.94335C6.6353 8.99086 6.74615 9.01461 6.857 9.01461C6.9441 9.01461 7.0312 8.99877 7.11038 8.9671C7.26082 9.33925 7.62505 9.58471 8.02887 9.58471C8.29808 9.58471 8.55146 9.47386 8.74149 9.28382C8.89985 9.37092 9.24033 9.5372 9.5808 9.5372C9.62831 9.5372 9.6679 9.5372 9.70749 9.52928C10.048 9.48969 10.2063 9.35509 10.2776 9.25215C10.2934 9.23631 10.3013 9.21256 10.3093 9.19672C10.3884 9.22048 10.4755 9.23631 10.5785 9.23631C10.7606 9.23631 10.9427 9.17297 11.1248 9.04628C11.299 8.91959 11.4257 8.73748 11.4415 8.57912V8.5712C11.5049 8.58704 11.5603 8.58704 11.6236 8.58704C11.8137 8.58704 12.0037 8.53161 12.1779 8.41284C12.5263 8.18322 12.5817 7.89025 12.5817 7.70022C12.6451 7.71606 12.7005 7.71605 12.7638 7.71605C12.946 7.71605 13.1202 7.66063 13.2864 7.55769C13.5002 7.42309 13.6269 7.2093 13.6507 6.96384C13.6665 6.79756 13.619 6.63129 13.5319 6.48876C14.1099 6.2433 15.4322 5.76031 16.9841 5.40399C16.9921 5.49109 16.9921 5.57819 16.9921 5.67321C16.9921 8.61079 13.2627 10.9941 8.66231 10.9941Z" fill="#2C4496"/>
<path d="M47.0242 1.74635C46.7075 1.35045 46.2324 1.1525 45.591 1.1525C44.9497 1.1525 44.4746 1.35045 44.1579 1.74635C43.8412 2.14225 43.6828 2.60941 43.6828 3.13992C43.6828 3.67834 43.8412 4.15342 44.1579 4.54141C44.4746 4.92939 44.9497 5.12734 45.591 5.12734C46.2324 5.12734 46.7075 4.92939 47.0242 4.54141C47.3409 4.15342 47.4993 3.68626 47.4993 3.13992C47.4993 2.59357 47.3409 2.14225 47.0242 1.74635ZM46.2482 4.0109C46.0978 4.21677 45.8761 4.31178 45.591 4.31178C45.306 4.31178 45.0843 4.20885 44.9338 4.0109C44.7834 3.80503 44.7042 3.51998 44.7042 3.14784C44.7042 2.77569 44.7834 2.49064 44.9338 2.28477C45.0843 2.08682 45.306 1.98389 45.591 1.98389C45.8761 1.98389 46.0978 2.08682 46.2482 2.28477C46.3987 2.48272 46.4778 2.77569 46.4778 3.14784C46.4778 3.51998 46.3987 3.80503 46.2482 4.0109ZM38.9874 1.41379C38.6707 1.25543 38.3065 1.16833 37.8947 1.16833C37.2613 1.16833 36.8179 1.33461 36.5566 1.65925C36.3903 1.87303 36.3032 2.14225 36.2794 2.46689H37.2217C37.2454 2.32436 37.2929 2.20559 37.3642 2.12641C37.4592 2.01556 37.6255 1.95222 37.863 1.95222C38.0689 1.95222 38.2273 1.98389 38.3381 2.03931C38.449 2.09474 38.4965 2.20559 38.4965 2.35603C38.4965 2.48272 38.4252 2.57774 38.2827 2.63317C38.2035 2.66484 38.0768 2.69651 37.8947 2.72026L37.5622 2.75985C37.1821 2.80736 36.897 2.88654 36.6991 2.99739C36.3428 3.20326 36.1607 3.53582 36.1607 3.99506C36.1607 4.35137 36.2715 4.62059 36.4932 4.81854C36.7149 5.00857 37 5.09567 37.3405 5.1115C39.4783 5.20652 39.4546 3.98715 39.4704 3.73377V2.33228C39.4625 1.88887 39.3041 1.58007 38.9874 1.41379ZM38.4886 3.54374C38.4807 3.86838 38.3856 4.098 38.2114 4.21677C38.0293 4.34346 37.8314 4.39888 37.6176 4.39888C37.483 4.39888 37.3642 4.35929 37.2771 4.28803C37.1821 4.21677 37.1346 4.09008 37.1346 3.9238C37.1346 3.73377 37.2138 3.59916 37.3642 3.51207C37.4592 3.45664 37.6018 3.41705 37.8155 3.37746L38.0372 3.33787C38.1481 3.31411 38.2352 3.29036 38.2985 3.26661C38.3619 3.24285 38.4252 3.21118 38.4886 3.17159V3.54374ZM34.1178 2.00764C34.3633 2.00764 34.5375 2.08682 34.6563 2.23726C34.7354 2.34812 34.7829 2.4748 34.8067 2.61733H35.8598C35.8044 2.08682 35.6143 1.71467 35.3055 1.50881C34.9888 1.30294 34.585 1.19209 34.0941 1.19209C33.5161 1.19209 33.0568 1.36628 32.7322 1.72259C32.3996 2.0789 32.2413 2.57774 32.2413 3.2191C32.2413 3.78128 32.3917 4.24844 32.6926 4.60475C32.9935 4.96106 33.4527 5.13526 34.0862 5.13526C34.7196 5.13526 35.1947 4.92147 35.5193 4.4939C35.7252 4.2326 35.836 3.94756 35.8598 3.65459H34.7988C34.775 3.85254 34.7196 4.0109 34.6167 4.13759C34.5137 4.25636 34.3474 4.3197 34.102 4.3197C33.7615 4.3197 33.5319 4.16134 33.4052 3.85254C33.3339 3.68626 33.3023 3.46456 33.3023 3.19534C33.3023 2.92613 33.3339 2.68067 33.4052 2.50648C33.5319 2.17392 33.7694 2.00764 34.1178 2.00764ZM31.9483 1.18417C29.7867 1.18417 29.9134 3.10033 29.9134 3.10033V5.04816H30.8952V3.22702C30.8952 2.92613 30.9348 2.70443 31.006 2.5619C31.1407 2.30853 31.4019 2.18184 31.7978 2.18184C31.8295 2.18184 31.8691 2.18184 31.9166 2.18976C31.9641 2.18976 32.0196 2.19767 32.0829 2.20559V1.20792C32.0433 1.20792 32.0116 1.2 31.9958 1.2C31.98 1.18417 31.9641 1.18417 31.9483 1.18417ZM29.1295 1.91263C28.9632 1.65925 28.7415 1.47713 28.4881 1.35836C28.2268 1.23959 27.9339 1.18417 27.6092 1.18417C27.0629 1.18417 26.6195 1.35836 26.279 1.69884C25.9385 2.04723 25.7643 2.53815 25.7643 3.18743C25.7643 3.87629 25.9543 4.37513 26.3344 4.68393C26.7145 4.99273 27.15 5.14318 27.6488 5.14318C28.2506 5.14318 28.7177 4.96106 29.0503 4.59683C29.2324 4.4068 29.3433 4.21677 29.3908 4.03465H28.3456C28.306 4.09008 28.2585 4.14551 28.211 4.1851C28.0685 4.29595 27.8863 4.33554 27.6646 4.33554C27.4588 4.33554 27.2925 4.30387 27.1421 4.20885C26.8966 4.05841 26.762 3.80503 26.7461 3.43289H29.462C29.462 3.10825 29.4541 2.86279 29.4304 2.68859C29.3829 2.38771 29.2799 2.13433 29.1295 1.91263ZM26.762 2.77569C26.7937 2.53023 26.8808 2.3402 27.0233 2.19767C27.1579 2.05515 27.3558 1.98389 27.6092 1.98389C27.8388 1.98389 28.0289 2.04723 28.1872 2.18184C28.3456 2.31644 28.4248 2.51439 28.4485 2.76777H26.762V2.77569ZM23.8086 1.16833C23.3493 1.16833 22.9613 1.36628 22.6921 1.69092C22.4387 1.3742 22.0508 1.16833 21.5757 1.16833C20.6176 1.16833 20 1.87303 20 2.80736V5.04024H20.8947V2.78361C20.8947 2.37187 21.1719 2.08682 21.5757 2.08682C22.1695 2.08682 22.225 2.57774 22.225 2.78361V5.04024H23.1197V2.78361C23.1197 2.37187 23.4047 2.08682 23.8006 2.08682C24.3945 2.08682 24.4578 2.57774 24.4578 2.78361V5.04024H25.3526V2.80736C25.3684 1.84928 24.7904 1.16833 23.8086 1.16833ZM42.408 0.693251V1.74635C42.2971 1.57215 42.1546 1.42963 41.9804 1.33461C41.8062 1.23959 41.6083 1.18417 41.3786 1.18417C40.8877 1.18417 40.4997 1.36628 40.2068 1.73051C39.9138 2.09474 39.7634 2.62525 39.7634 3.25869C39.7634 3.81295 39.9138 4.26428 40.2068 4.61267C40.5077 4.96106 41.0857 5.11942 41.6083 5.11942C43.4136 5.11942 43.3977 3.56749 43.3977 3.56749V0.00438283C43.3977 0.00438283 42.408 -0.0985505 42.408 0.693251ZM42.218 4.01882C42.0754 4.22469 41.8616 4.32762 41.5924 4.32762C41.3232 4.32762 41.1094 4.22469 40.9748 4.01882C40.8402 3.81295 40.769 3.51206 40.769 3.16367C40.769 2.84695 40.8323 2.57774 40.9669 2.36395C41.1015 2.15017 41.3074 2.03931 41.5924 2.03931C41.7825 2.03931 41.9408 2.09474 42.0833 2.21351C42.313 2.41146 42.4317 2.75985 42.4317 3.2191C42.4397 3.54374 42.3605 3.81295 42.218 4.01882ZM22.0745 6.54466C21.2669 6.50507 20.8551 6.70303 20.5939 6.90098C20.2296 7.17811 20 7.59776 20 8.26288V11.6755H20.4751C20.6018 11.6755 20.7285 11.628 20.8235 11.5489C20.9264 11.4538 20.9818 11.3351 20.9818 11.1925V9.90982C21.1006 10.1078 21.251 10.2582 21.4411 10.3532C21.6232 10.4403 21.837 10.4799 22.0745 10.4799C22.5258 10.4799 22.898 10.2978 23.183 9.94149C23.4681 9.56935 23.6185 9.08635 23.6185 8.4925C23.6185 7.89073 23.4839 7.47107 23.1514 7.06725C22.898 6.74262 22.4942 6.5605 22.0745 6.54466ZM22.415 9.33972C22.2725 9.53767 22.0745 9.64061 21.8211 9.64061C21.5519 9.64061 21.3461 9.54559 21.2035 9.33972C21.061 9.15761 20.9898 8.8884 20.9898 8.53209C20.9898 8.1441 21.0531 7.85905 21.1877 7.67694C21.3302 7.47899 21.5361 7.37606 21.7974 7.37606C22.0587 7.37606 22.2725 7.47899 22.415 7.67694C22.5575 7.87489 22.6288 8.15994 22.6288 8.53209C22.6288 8.87256 22.5575 9.14177 22.415 9.33972ZM30.5072 6.89306C30.1747 6.63968 29.8342 6.50508 29.2482 6.52091C28.6544 6.53675 28.2189 6.70303 27.9497 7.06725C27.6805 7.43148 27.5459 7.90656 27.5459 8.4925C27.5459 8.99133 27.6488 9.40307 27.8468 9.71187C28.0526 10.0207 28.2902 10.2345 28.5752 10.3453C28.8603 10.4562 29.1453 10.4799 29.4304 10.4166C29.7154 10.3532 29.945 10.187 30.1192 9.91774V10.1553C30.1034 10.4562 30.0242 10.6858 29.8975 10.8362C29.7708 10.9867 29.6283 11.0817 29.4699 11.1134C29.3116 11.145 29.1611 11.1292 29.0028 11.0579C28.8444 10.9867 28.7336 10.8837 28.6544 10.7491H27.6171C27.8863 11.5568 28.3693 11.9131 29.2324 11.9685C30.626 12.0714 31.0773 10.8837 31.0773 10.2503V8.24704C31.0931 7.59776 30.8714 7.17019 30.5072 6.89306ZM30.0955 8.86464C30.0559 9.08635 30.0005 9.25263 29.9134 9.35556C29.7312 9.60102 29.4541 9.68812 29.082 9.61685C28.7019 9.54559 28.5119 9.18137 28.5119 8.53209C28.5119 8.2312 28.5673 7.96199 28.6781 7.72445C28.789 7.48691 29.0107 7.36814 29.3274 7.36814C29.565 7.36814 29.7471 7.45524 29.8659 7.62152C29.9925 7.79571 30.0638 7.98574 30.1034 8.20745C30.1351 8.42124 30.1351 8.64294 30.0955 8.86464ZM26.7066 6.79804C26.3898 6.63968 26.0256 6.55258 25.6139 6.55258C24.9804 6.55258 24.537 6.71886 24.2757 7.0435C24.1095 7.25729 24.0224 7.5265 23.9986 7.85114H24.9408C24.9646 7.70861 25.0121 7.58984 25.0834 7.51066C25.1784 7.39981 25.3447 7.33647 25.5822 7.33647C25.7881 7.33647 25.9464 7.36814 26.0573 7.42357C26.1681 7.47899 26.2156 7.58984 26.2156 7.74029C26.2156 7.86697 26.1444 7.96199 26.0019 8.01742C25.9227 8.04909 25.796 8.08076 25.6139 8.10452L25.2813 8.1441C24.9013 8.19161 24.6083 8.27079 24.4183 8.38165C24.0619 8.58751 23.8798 8.92007 23.8798 9.37931C23.8798 9.73562 23.9907 10.0048 24.2124 10.2028C24.4341 10.3928 24.7191 10.4799 25.0596 10.4958C27.1896 10.5908 27.1658 9.3714 27.1896 9.11802V7.71653C27.1896 7.2652 27.0312 6.9564 26.7066 6.79804ZM26.2077 8.92799C26.1998 9.25263 26.1048 9.48225 25.9306 9.60102C25.7485 9.72771 25.5505 9.78313 25.3367 9.78313C25.2021 9.78313 25.0913 9.74354 24.9963 9.67228C24.9013 9.60102 24.8537 9.47433 24.8537 9.30805C24.8537 9.11802 24.9329 8.98341 25.0834 8.89632C25.1784 8.84089 25.3209 8.8013 25.5347 8.76171L25.7564 8.72212C25.8672 8.69837 25.9543 8.68253 26.0177 8.65086C26.081 8.6271 26.1444 8.59543 26.2077 8.55584V8.92799ZM34.7988 7.10684C34.4821 6.71094 34.007 6.51299 33.3656 6.51299C32.7243 6.51299 32.2492 6.71094 31.9325 7.10684C31.6157 7.50275 31.4574 7.96991 31.4574 8.50042C31.4574 9.03092 31.6157 9.51392 31.9325 9.9019C32.2492 10.2899 32.7243 10.4799 33.3656 10.4799C34.007 10.4799 34.4821 10.282 34.7988 9.9019C35.1155 9.51392 35.2739 9.04676 35.2739 8.50042C35.2739 7.95407 35.1155 7.50275 34.7988 7.10684ZM34.0228 9.36348C33.8724 9.56935 33.6507 9.66436 33.3656 9.66436C33.0806 9.66436 32.8589 9.56143 32.7084 9.36348C32.5501 9.15761 32.4788 8.87256 32.4788 8.50042C32.4788 8.12827 32.558 7.84322 32.7084 7.63735C32.8589 7.4394 33.0806 7.33647 33.3656 7.33647C33.6507 7.33647 33.8724 7.4394 34.0228 7.63735C34.1733 7.8353 34.2524 8.12827 34.2524 8.50042C34.2524 8.88048 34.1733 9.16553 34.0228 9.36348Z" fill="#2C4496"/>
</svg>
