<svg width="54" height="30" viewBox="0 0 36 20" fill="none" xmlns="http://www.w3.org/2000/svg">
<path d="M23.1431 0C20.6203 0 18.3657 1.31347 18.3657 3.73965C18.3657 6.52232 22.3642 6.7145 22.3642 8.11263C22.3642 8.70131 21.6927 9.2282 20.5453 9.2282C18.9174 9.2282 17.7006 8.49199 17.7006 8.49199L17.1799 10.9407C17.1799 10.9407 18.5816 11.5626 20.4425 11.5626C23.2007 11.5626 25.3714 10.1848 25.3714 7.71684C25.3714 4.77627 21.3562 4.58981 21.3562 3.29242C21.3562 2.83126 21.9075 2.32616 23.0513 2.32616C24.3421 2.32616 25.3948 2.86162 25.3948 2.86162L25.9045 0.496881C25.9045 0.496881 24.7585 0 23.1427 0H23.1431ZM0.0611753 0.178606L0 0.53546C0 0.53546 1.06132 0.730497 2.01736 1.11986C3.24833 1.56601 3.33583 1.82606 3.54319 2.63265L5.80205 11.3783H8.83022L13.4952 0.178606H10.4741L7.47654 7.79328L6.25339 1.33847C6.14136 0.599758 5.57299 0.178248 4.87766 0.178248H0.0615309L0.0611753 0.178606ZM14.7102 0.178606L12.3403 11.3783H15.2213L17.5826 0.178606H14.7102ZM30.7779 0.178606C30.0833 0.178606 29.7152 0.552249 29.4452 1.20487L25.2245 11.3783H28.2455L28.8299 9.68257H32.5104L32.8657 11.3783H35.5314L33.2061 0.178606H30.7779ZM31.1709 3.20454L32.0665 7.40714H29.6675L31.1713 3.20454H31.1709Z" fill="#212557"/>
<path d="M13.45 13.8H14.986C15.362 13.8 15.69 13.886 15.97 14.058C16.254 14.226 16.472 14.468 16.624 14.784C16.78 15.096 16.858 15.466 16.858 15.894C16.858 16.322 16.78 16.696 16.624 17.016C16.472 17.332 16.254 17.576 15.97 17.748C15.686 17.916 15.356 18 14.98 18H13.45V13.8ZM14.908 17.52C15.332 17.52 15.672 17.382 15.928 17.106C16.184 16.826 16.312 16.422 16.312 15.894C16.312 15.366 16.184 14.964 15.928 14.688C15.676 14.408 15.336 14.268 14.908 14.268H13.954V17.52H14.908ZM19.6811 18.042C19.3571 18.042 19.0831 17.964 18.8591 17.808C18.6391 17.652 18.4751 17.448 18.3671 17.196C18.2591 16.944 18.2051 16.678 18.2051 16.398C18.2051 16.114 18.2591 15.848 18.3671 15.6C18.4751 15.348 18.6411 15.144 18.8651 14.988C19.0891 14.832 19.3631 14.754 19.6871 14.754C20.1111 14.754 20.4491 14.896 20.7011 15.18C20.9571 15.464 21.0851 15.872 21.0851 16.404V16.548H18.7211V16.59C18.7211 16.766 18.7611 16.932 18.8411 17.088C18.9211 17.244 19.0331 17.37 19.1771 17.466C19.3211 17.562 19.4871 17.61 19.6751 17.61C19.8791 17.61 20.0551 17.558 20.2031 17.454C20.3511 17.35 20.4611 17.21 20.5331 17.034H21.0431C20.9591 17.322 20.8011 17.562 20.5691 17.754C20.3411 17.946 20.0451 18.042 19.6811 18.042ZM20.5751 16.182C20.5591 15.822 20.4711 15.562 20.3111 15.402C20.1511 15.242 19.9411 15.162 19.6811 15.162C19.3971 15.162 19.1711 15.256 19.0031 15.444C18.8351 15.632 18.7451 15.878 18.7331 16.182H20.5751ZM19.4951 14.412L20.0831 13.338H20.6351L19.9091 14.412H19.4951ZM24.2712 18.042C23.9952 18.042 23.7692 17.974 23.5932 17.838C23.4172 17.702 23.2812 17.54 23.1852 17.352H23.1432V18H22.6212V13.5H23.1432V15.426H23.1852C23.2732 15.242 23.4032 15.084 23.5752 14.952C23.7472 14.82 23.9732 14.754 24.2532 14.754C24.5372 14.754 24.7792 14.826 24.9792 14.97C25.1832 15.11 25.3372 15.306 25.4412 15.558C25.5452 15.806 25.5972 16.086 25.5972 16.398C25.5972 16.71 25.5452 16.99 25.4412 17.238C25.3372 17.486 25.1852 17.682 24.9852 17.826C24.7852 17.97 24.5472 18.042 24.2712 18.042ZM24.1092 17.598C24.4212 17.598 24.6572 17.484 24.8172 17.256C24.9812 17.028 25.0632 16.742 25.0632 16.398C25.0632 16.058 24.9832 15.774 24.8232 15.546C24.6632 15.318 24.4252 15.204 24.1092 15.204C23.7972 15.204 23.5592 15.318 23.3952 15.546C23.2352 15.774 23.1552 16.058 23.1552 16.398C23.1552 16.738 23.2372 17.024 23.4012 17.256C23.5652 17.484 23.8012 17.598 24.1092 17.598ZM27.1582 14.838H27.6742V18H27.1582V14.838ZM27.4102 14.25C27.3142 14.25 27.2342 14.218 27.1702 14.154C27.1062 14.086 27.0742 14.006 27.0742 13.914C27.0742 13.822 27.1062 13.744 27.1702 13.68C27.2342 13.612 27.3142 13.578 27.4102 13.578C27.5062 13.578 27.5862 13.612 27.6502 13.68C27.7182 13.744 27.7522 13.822 27.7522 13.914C27.7522 14.006 27.7182 14.086 27.6502 14.154C27.5862 14.218 27.5062 14.25 27.4102 14.25ZM30.2422 15.252V17.088C30.2422 17.236 30.2482 17.346 30.2602 17.418C30.2762 17.486 30.3142 17.54 30.3742 17.58C30.4382 17.62 30.5402 17.64 30.6802 17.64C30.7762 17.64 30.8802 17.626 30.9922 17.598V17.97C30.9642 17.982 30.9022 17.994 30.8062 18.006C30.7142 18.018 30.6182 18.024 30.5182 18.024C30.2862 18.024 30.1122 17.992 29.9962 17.928C29.8842 17.86 29.8102 17.77 29.7742 17.658C29.7422 17.542 29.7262 17.39 29.7262 17.202V15.252H29.1382V14.838H29.7262V13.8H30.2422V14.838H30.9922V15.252H30.2422ZM33.8696 18.042C33.5496 18.042 33.2776 17.966 33.0536 17.814C32.8336 17.658 32.6676 17.456 32.5556 17.208C32.4436 16.956 32.3876 16.686 32.3876 16.398C32.3876 16.11 32.4436 15.842 32.5556 15.594C32.6676 15.342 32.8336 15.14 33.0536 14.988C33.2776 14.832 33.5496 14.754 33.8696 14.754C34.1896 14.754 34.4596 14.832 34.6796 14.988C34.9036 15.14 35.0696 15.342 35.1776 15.594C35.2896 15.846 35.3456 16.114 35.3456 16.398C35.3456 16.682 35.2896 16.95 35.1776 17.202C35.0656 17.454 34.8976 17.658 34.6736 17.814C34.4536 17.966 34.1856 18.042 33.8696 18.042ZM33.8696 17.598C34.0656 17.598 34.2356 17.544 34.3796 17.436C34.5276 17.328 34.6396 17.184 34.7156 17.004C34.7916 16.82 34.8296 16.616 34.8296 16.392C34.8296 16.048 34.7436 15.762 34.5716 15.534C34.3996 15.306 34.1656 15.192 33.8696 15.192C33.6696 15.192 33.4956 15.246 33.3476 15.354C33.2036 15.462 33.0936 15.608 33.0176 15.792C32.9416 15.972 32.9036 16.172 32.9036 16.392C32.9036 16.736 32.9896 17.024 33.1616 17.256C33.3336 17.484 33.5696 17.598 33.8696 17.598Z" fill="#212557"/>
</svg>
