<svg width="54" height="18" viewBox="0 0 36 12" fill="none" xmlns="http://www.w3.org/2000/svg">
<path d="M23.1431 0C20.6203 0 18.3657 1.31347 18.3657 3.73965C18.3657 6.52232 22.3642 6.7145 22.3642 8.11263C22.3642 8.70131 21.6927 9.2282 20.5453 9.2282C18.9174 9.2282 17.7006 8.49199 17.7006 8.49199L17.1799 10.9407C17.1799 10.9407 18.5816 11.5626 20.4425 11.5626C23.2007 11.5626 25.3714 10.1848 25.3714 7.71684C25.3714 4.77627 21.3562 4.58981 21.3562 3.29242C21.3562 2.83126 21.9075 2.32616 23.0513 2.32616C24.3421 2.32616 25.3948 2.86162 25.3948 2.86162L25.9045 0.496881C25.9045 0.496881 24.7585 0 23.1427 0H23.1431ZM0.0611753 0.178606L0 0.53546C0 0.53546 1.06132 0.730497 2.01736 1.11986C3.24833 1.56601 3.33583 1.82606 3.54319 2.63265L5.80205 11.3783H8.83022L13.4952 0.178606H10.4741L7.47654 7.79328L6.25339 1.33847C6.14136 0.599758 5.57299 0.178248 4.87766 0.178248H0.0615309L0.0611753 0.178606ZM14.7102 0.178606L12.3403 11.3783H15.2213L17.5826 0.178606H14.7102ZM30.7779 0.178606C30.0833 0.178606 29.7152 0.552249 29.4452 1.20487L25.2245 11.3783H28.2455L28.8299 9.68257H32.5104L32.8657 11.3783H35.5314L33.2061 0.178606H30.7779ZM31.1709 3.20454L32.0665 7.40714H29.6675L31.1713 3.20454H31.1709Z" fill="#212557"/>
</svg>
