<svg width="30" height="30" viewBox="0 0 30 30" fill="none" xmlns="http://www.w3.org/2000/svg">
<path d="M18.7503 21.25C17.7509 22.028 16.438 22.5 15.0003 22.5C13.5624 22.5 12.2497 22.028 11.2502 21.25" stroke="#996CFE" stroke-width="2" stroke-linecap="round"/>
<path d="M2.93948 16.5169C2.49821 13.6453 2.27757 12.2095 2.82046 10.9367C3.36333 9.6639 4.56778 8.79304 6.97667 7.05132L8.77648 5.75C11.7731 3.58334 13.2714 2.5 15.0003 2.5C16.729 2.5 18.2274 3.58334 21.224 5.75L23.0238 7.05132C25.4328 8.79304 26.6371 9.6639 27.18 10.9367C27.7229 12.2095 27.5023 13.6453 27.061 16.5169L26.6848 18.9655C26.0591 23.0361 25.7464 25.0715 24.2865 26.2858C22.8266 27.5 20.6923 27.5 16.4238 27.5H13.5768C9.30817 27.5 7.17388 27.5 5.71399 26.2858C4.25411 25.0715 3.94133 23.0361 3.31578 18.9655L2.93948 16.5169Z" stroke="#996CFE" stroke-width="2" stroke-linejoin="round"/>
</svg>
